<svg xmlns="http://www.w3.org/2000/svg" viewBox="0 0 240 240" fill="none">
  
  <g stroke="#ffffff" fill="none" stroke-linecap="round">
  <g opacity="0.1"><circle cx="120" cy="120" r="144"/><circle cx="120" cy="120" r="132"/><circle cx="120" cy="120" r="122"/></g>
  <circle cx="120" cy="120" r="100.0" stroke-width="3.39"/>
  <g stroke-width="1.4" opacity="0.45"><line x1="18.305" y1="119.548" x2="221.695" y2="119.548"/><line x1="120.452" y1="18.305" x2="120.452" y2="221.695"/></g>
  <circle cx="121.29" cy="117.803" r="22" stroke-width="1.1" opacity="0.28"/>
  <circle cx="121.29" cy="117.803" r="5.65" fill="#ffffff" stroke="none" opacity="0.9"/>
  <g opacity="0.95">
  <line x1="145.351" y1="3.051" x2="145.351" y2="236.949" stroke-width="5.65"/>
  <line x1="131.057" y1="39.435" x2="131.057" y2="200.565" stroke-width="5.65"/>
  <line x1="25.576" y1="117.645" x2="128.231" y2="117.645" stroke-width="4.71"/>
  <line x1="144.881" y1="3.051" x2="144.881" y2="23.841" stroke-width="4.71"/>
  <line x1="142.525" y1="21.487" x2="220.492" y2="21.487" stroke-width="4.71"/>
  <line x1="144.881" y1="216.159" x2="144.881" y2="236.949" stroke-width="4.71"/>
  <line x1="142.517" y1="213.803" x2="220.3" y2="213.551" stroke-width="4.71"/>
  </g>
  <g fill="#ffffff" stroke="none" opacity="0.95">
  <circle cx="21.223" cy="117.129" r="5.847"/>
  <circle cx="220.23" cy="21.446" r="5.198"/>
  <circle cx="220.23" cy="214.129" r="5.198"/>
  </g>
  <path d="M 111.608 117.541 L 98.939 125.667 L 98.939 109.102 Z" fill="#ffffff" stroke="none" opacity="0.95"/>
  </g>
</svg>
